<svg width="400" height="300" viewBox="0 0 400 300" xmlns="http://www.w3.org/2000/svg">
  <defs>
    <linearGradient id="blueGrad" x1="0%" y1="0%" x2="100%" y2="100%">
      <stop offset="0%" style="stop-color:#3b82f6;stop-opacity:1" />
      <stop offset="100%" style="stop-color:#8b5cf6;stop-opacity:1" />
    </linearGradient>
    <filter id="shadow">
      <feDropShadow dx="0" dy="2" stdDeviation="4" flood-opacity="0.1"/>
    </filter>
  </defs>

  <!-- Phone Mockup -->
  <rect x="120" y="40" width="160" height="220" rx="20" fill="#1e293b" filter="url(#shadow)"/>
  <rect x="125" y="50" width="150" height="200" rx="15" fill="#f8fafc"/>

  <!-- Message Bubbles -->
  <!-- User Message -->
  <rect x="135" y="65" width="100" height="35" rx="18" fill="#3b82f6"/>
  <text x="145" y="85" font-family="Arial, sans-serif" font-size="12" fill="white">Hello! Need help</text>

  <!-- AI Response -->
  <rect x="195" y="110" width="70" height="35" rx="18" fill="#e2e8f0"/>
  <text x="205" y="130" font-family="Arial, sans-serif" font-size="12" fill="#1e293b">Hi! How can</text>

  <!-- User Message 2 -->
  <rect x="135" y="155" width="110" height="35" rx="18" fill="#3b82f6"/>
  <text x="145" y="175" font-family="Arial, sans-serif" font-size="12" fill="white">Order status?</text>

  <!-- AI Response with checkmark -->
  <rect x="175" y="200" width="90" height="35" rx="18" fill="#e2e8f0"/>
  <text x="185" y="220" font-family="Arial, sans-serif" font-size="12" fill="#1e293b">Checking...</text>
  <circle cx="250" cy="217" r="6" fill="#10b981"/>
  <path d="M247 217 L249 219 L254 214" stroke="white" stroke-width="2" fill="none"/>

  <!-- Time indicators -->
  <text x="145" y="245" font-family="Arial, sans-serif" font-size="9" fill="#94a3b8">10:42 AM</text>
  <text x="190" y="245" font-family="Arial, sans-serif" font-size="9" fill="#94a3b8">10:42 AM</text>

  <!-- Status bar -->
  <rect x="125" y="50" width="150" height="25" rx="15" fill="#3b82f6"/>
  <text x="190" y="67" font-family="Arial, sans-serif" font-size="12" font-weight="500" fill="white">WhatsFlow</text>

  <!-- Labels -->
  <text x="200" y="290" font-family="Arial, sans-serif" font-size="14" font-weight="600" fill="#1e293b" text-anchor="middle">Unified Inbox</text>
</svg>

